<svg id="Layer_1" xmlns="http://www.w3.org/2000/svg" viewBox="0 0 15.9 16.5"><style>.st0{fill:#fff}</style><path class="st0" d="M8.5 9.5c.5.3 1 .7 1.3 1.3s.5 1.1.5 1.8v.2c0 .5-.1.9-.3 1.4-.2.4-.5.8-1 1.2s-1 .6-1.6.8c-.6.2-1.3.3-2.1.3-.7 0-1.4-.1-2-.2-.7-.1-1.3-.3-1.7-.6-.5-.3-.9-.6-1.1-.9-.4-.4-.5-.8-.5-1.3s.1-.9.4-1.4c.3-.4.6-.8 1.1-1.1.4-.3 1-.6 1.6-.8.6-.2 1.3-.3 2-.3h.8c-.2-.2-.3-.4-.5-.7-.1-.2-.2-.5-.2-.8 0-.2 0-.4.1-.5 0-.2.1-.3.2-.4h-.2-.2H5h-.1c-1 0-1.9-.4-2.6-1.1S1.1 4.8 1.1 3.8c0-.5.1-1 .4-1.4.2-.5.6-.9 1-1.2.4-.3.9-.6 1.4-.8C4.4.1 5 0 5.6 0h5.1L9.6.8H7.9c.6.2 1 .6 1.3 1.2.3.6.4 1.2.4 1.8 0 .5-.2 1.1-.4 1.5s-.6.9-1 1.2c-.5.3-.8.5-.9.7-.1.2-.2.5-.2.7 0 .2.2.5.5.8s.7.7.9.8zm-3.3 6.2c1.4 0 2.3-.3 2.9-.8.6-.5.9-1.1.9-1.8v-.3-.2c-.1-.4-.4-.8-.7-1.1-.4-.3-.8-.6-1.3-1-.2-.1-.4-.1-.6-.1-.2 0-.4-.1-.7-.1-1 0-1.9.3-2.6.8-.8.5-1.1 1.2-1.1 1.9s.3 1.4 1 1.9c.4.6 1.2.8 2.2.8zM5.8 7c.7 0 1.2-.3 1.6-.9.4-.6.5-1.3.4-2.2-.2-.9-.5-1.6-1.1-2.2S5.6.7 4.9.7c-.6 0-1.1.3-1.5.9s-.6 1.3-.5 2.2c.1.9.4 1.6 1 2.2.6.6 1.2.9 1.9 1zm10.1.1v1.6h-2v2h-1.6v-2h-2V7.1h2v-2h1.6v2h2z"/></svg>