<svg id="Layer_1" xmlns="http://www.w3.org/2000/svg" viewBox="0 0 17.4 14.4"><style>.st0{fill:#fff}</style><path class="st0" d="M17.1 1.8c.3-.1.4-.1.4-.1-.1.2-.3.4-.4.5-.1.2-.3.4-.4.5-.2.2-.5.4-.9.7 0 .6 0 1.1-.1 1.7-.1.6-.2 1.1-.3 1.6-.2.7-.5 1.3-.8 2s-.7 1.2-1.2 1.8c-.5.6-1 1.1-1.6 1.6-.6.5-1.3.9-2 1.2-.6.3-1.3.5-1.9.7-.7.2-1.3.2-2 .2-.6 0-1.1 0-1.7-.1-.6-.1-1.1-.2-1.6-.4-.4-.2-.8-.3-1.2-.5-.6 0-1-.2-1.4-.4.5 0 1.1 0 1.6-.1l1.5-.3c.4-.1.8-.3 1.1-.5.4-.2.7-.4 1-.7-.4 0-.7-.1-1.1-.2-.3-.1-.7-.3-.9-.5-.3-.2-.5-.5-.7-.8-.3-.2-.5-.5-.6-.9h.9c.1 0 .2-.1.3-.1.1 0 .2-.1.3-.1-.4-.1-.7-.2-1-.4-.4-.2-.6-.4-.9-.6l-.6-.9c-.2-.3-.3-.7-.3-1l-.1-.6c.1.1.3.2.4.2.1 0 .3.1.4.1.1 0 .3.1.4.1h.4c-.3-.3-.6-.5-.9-.8C1 4.3.8 4 .7 3.6c-.2-.5-.2-1-.1-1.5s.2-1 .5-1.4c.4.5.9 1 1.4 1.4.5.4 1.1.8 1.6 1.1.6.4 1.3.7 2.1.8.7.2 1.5.3 2.3.3-.1-.4-.1-.9 0-1.3s.2-.8.4-1.3.6-.9 1-1.2c.4-.3.9-.5 1.4-.6.4.1.7.1 1.1.1s.7.1 1.1.3c.2.1.4.2.6.4.2.1.4.3.6.5.2 0 .4-.1.5-.1.2 0 .3-.1.5-.1.2-.1.4-.2.7-.3l.6-.3c-.1.2-.1.4-.3.6-.1.2-.2.4-.4.5-.1.2-.3.3-.4.4-.1.1-.3.3-.5.4l1-.3c.2-.1.4-.1.7-.2z"/></svg>