<svg xmlns="http://www.w3.org/2000/svg" width="32" height="32" viewBox="43.498 -2.999 32 32"><path fill="#6D6765" d="M59.058 6c-5.392.392-8.639 6.832-5.312 11.542a47.427 47.427 0 0 0-.824 2.481c.896-.265 1.728-.593 2.656-.825 4.906 2.979 10.776-.366 11.272-5.223.458-4.408-3.065-8.327-7.792-7.975zm2.754 11.542c-2.37-.102-5.634-3.104-6.417-5.31-.463-1.313.072-3.824 2.112-3.208.512 1.081 1.313 2.671 0 3.394.081.175.168.344.264.502.047.081.104.161.152.24.057.08.104.152.16.232l.167.215c.064.074.121.146.184.216.033.032.056.065.089.097.031.041.063.072.095.106.584.591 1.288 1.055 2.096 1.415.472-.319.792-.798 1.19-1.193.834.328 1.611.708 2.289 1.193.076 1.577-1.255 2.159-2.381 2.101zM59.058 6c-5.392.392-8.639 6.832-5.312 11.542a47.427 47.427 0 0 0-.824 2.481c.896-.265 1.728-.593 2.656-.825 4.906 2.979 10.776-.366 11.272-5.223.458-4.408-3.065-8.327-7.792-7.975zm2.754 11.542c-2.37-.102-5.634-3.104-6.417-5.31-.463-1.313.072-3.824 2.112-3.208.512 1.081 1.313 2.671 0 3.394.081.175.168.344.264.502.047.081.104.161.152.24.057.08.104.152.16.232l.167.215c.064.074.121.146.184.216.033.032.056.065.089.097.031.041.063.072.095.106.584.591 1.288 1.055 2.096 1.415.472-.319.792-.798 1.19-1.193.834.328 1.611.708 2.289 1.193.076 1.577-1.255 2.159-2.381 2.101zM59.499-2.999c-8.825 0-16 7.174-16 15.999 0 8.824 7.176 16.001 16 16.001s16-7.177 16-16.001c-.001-8.825-7.176-15.999-16-15.999zm-2.545 24.487c-.455-.146-1.023-.61-1.56-.642-.744-.046-1.72.487-2.472.737-.832.263-1.545.527-2.384.728.479-1.56 1.04-3.048 1.552-4.585-3.4-5.943.808-12.638 6.513-13.199 5.385-.52 9.8 3.345 9.807 8.616.018 5.57-5.384 10.25-11.456 8.345zM59.058 6c-5.392.392-8.639 6.832-5.312 11.542a47.427 47.427 0 0 0-.824 2.481c.896-.265 1.728-.593 2.656-.825 4.906 2.979 10.776-.366 11.272-5.223.458-4.408-3.065-8.327-7.792-7.975zm2.754 11.542c-2.37-.102-5.634-3.104-6.417-5.31-.463-1.313.072-3.824 2.112-3.208.512 1.081 1.313 2.671 0 3.394.081.175.168.344.264.502.047.081.104.161.152.24.057.08.104.152.16.232l.167.215c.064.074.121.146.184.216.033.032.056.065.089.097.031.041.063.072.095.106.584.591 1.288 1.055 2.096 1.415.472-.319.792-.798 1.19-1.193.834.328 1.611.708 2.289 1.193.076 1.577-1.255 2.159-2.381 2.101z"/></svg>