<svg xmlns="http://www.w3.org/2000/svg" width="32" height="32" viewBox="43.5 -3 32 32"><g fill="#6D6765"><path d="M59.498-3C50.676-3 43.5 4.178 43.5 13c0 8.821 7.176 16 15.998 16C68.321 29 75.5 21.821 75.5 13c0-8.822-7.179-16-16.002-16zm9.548 21.074a2.734 2.734 0 0 1-2.725 2.724H52.678a2.733 2.733 0 0 1-2.724-2.724v-2.782a2.74 2.74 0 0 1 2.724-2.731h13.644a2.741 2.741 0 0 1 2.725 2.731v2.782zm-9.633-12c.403 0 .741.116 1 .358.249.229.386.527.386.894v2.473c0 .415-.126.731-.386.96-.248.243-.605.357-1.048.357-.422 0-.769-.125-1.032-.366-.25-.239-.382-.557-.382-.972V7.296c0-.375.133-.664.394-.885.27-.221.626-.337 1.068-.337zm-5.246-1.578h1.118l.712 2.599h.076l.682-2.599h1.118l-1.279 3.8v2.696h-1.107V8.423l-1.32-3.927zm8.469 5.63a.244.244 0 0 0 .189.077c.082 0 .168-.04.283-.106.105-.067.212-.154.296-.259V6.2h.984v4.792h-.984v-.529a2.143 2.143 0 0 1-.558.453 1.325 1.325 0 0 1-.578.142c-.22 0-.395-.066-.51-.212-.115-.142-.173-.354-.173-.642V6.2h.981v3.675c.001.117.023.191.07.251z"/><path d="M61.531 15.11a.883.883 0 0 0-.406.107c-.134.064-.259.17-.372.296v-1.896h-.881v5.9h.881v-.338c.113.135.238.231.372.3.132.063.28.096.454.096.258 0 .459-.087.596-.252.134-.165.2-.401.2-.711v-2.417c0-.354-.075-.625-.219-.809-.147-.18-.355-.276-.625-.276zm-.052 3.389c0 .141-.03.24-.074.297-.049.067-.126.099-.241.099a.474.474 0 0 1-.2-.051.672.672 0 0 1-.211-.153v-2.713a.628.628 0 0 1 .182-.135.43.43 0 0 1 .18-.039c.115 0 .217.039.271.117.064.075.095.18.095.327v2.251zM59.364 10.289c.133 0 .243-.038.316-.116a.394.394 0 0 0 .117-.298V7.257a.304.304 0 0 0-.117-.25.49.49 0 0 0-.316-.098c-.116 0-.221.029-.29.098a.306.306 0 0 0-.112.25v2.617c0 .125.037.232.103.298.066.078.175.117.299.117zM58.344 18.467a.843.843 0 0 1-.269.232.436.436 0 0 1-.24.097c-.075 0-.146-.018-.173-.068-.038-.045-.058-.124-.058-.221v-3.349h-.867v3.647c0 .261.05.451.145.579.107.134.259.202.46.202.164 0 .328-.049.502-.146.174-.087.347-.222.5-.404v.482h.877V15.16h-.877v3.307zM64.157 15.053c-.397 0-.716.125-.951.354a1.226 1.226 0 0 0-.381.927v1.952c0 .425.118.751.34.992.221.241.53.356.927.356.43 0 .755-.107.967-.336.226-.224.34-.559.34-1.013v-.223h-.904v.206c0 .249-.031.422-.088.488-.057.079-.156.117-.296.117-.138 0-.244-.038-.3-.135-.058-.087-.077-.24-.077-.471v-.82h1.665v-1.115c0-.416-.114-.721-.328-.945-.214-.22-.519-.334-.914-.334zm.337 1.712h-.761v-.442c0-.173.019-.305.084-.384.058-.077.153-.126.301-.126.132 0 .231.049.288.126.055.079.088.211.088.384v.442zM53.341 14.475h1.008v5.044h.982v-5.044h1.019v-.857h-3.009z"/></g></svg>